<svg width="118" height="87" viewBox="0 0 118 87" fill="none" xmlns="http://www.w3.org/2000/svg">
<g clip-path="url(#clip0_11_2)">
<path d="M25.9304 33.6553V7.99695H31.4388C33.3888 7.99695 34.7804 8.25528 35.6138 8.77195C36.4513 9.28445 36.8721 10.1303 36.8721 11.3136V18.2219C36.8721 18.8386 36.7638 19.3803 36.5471 19.8469C36.3346 20.3094 35.9721 20.6469 35.4554 20.8636C35.9721 21.0636 36.3554 21.3949 36.6054 21.8553C36.8596 22.3115 36.9888 22.8428 36.9888 23.4469V30.3386C36.9888 31.5178 36.5721 32.3636 35.7388 32.8803C34.9096 33.3969 33.5221 33.6553 31.5721 33.6553H25.9304ZM30.8888 19.5219H31.1971C31.4575 19.5219 31.6492 19.4594 31.7721 19.3303C31.8992 19.1969 31.9638 18.9719 31.9638 18.6553V11.8219C31.9638 11.5615 31.9179 11.3761 31.8304 11.2636C31.7471 11.1469 31.5908 11.0886 31.3638 11.0886H30.8888V19.5219ZM30.8888 30.5386H31.3638C31.5908 30.5386 31.7471 30.4865 31.8304 30.3803C31.9179 30.2761 31.9638 30.0886 31.9638 29.8219V23.0136C31.9638 22.6969 31.8992 22.4761 31.7721 22.3469C31.6492 22.2136 31.4575 22.1469 31.1971 22.1469H30.8888V30.5386Z" fill="#FFF5F5"/>
<path d="M44.0755 33.6553L43.9671 30.0303H42.8338L42.7171 33.6553H37.5088L40.5505 7.99695H46.2255L49.2838 33.6553H44.0755ZM42.9255 27.1053H43.8671L43.4755 15.1469H43.2838L42.9255 27.1053Z" fill="#FFF5F5"/>
<path d="M60.8516 33.6553H55.9016L55.5266 24.3886H54.8266V33.6553H49.8683V7.99695H55.1683C56.3016 7.99695 57.2933 8.10945 58.1433 8.33028C58.9933 8.54695 59.6475 8.95528 60.11 9.55528C60.5766 10.1511 60.81 11.0261 60.81 12.1803V20.5636C60.81 21.2136 60.7141 21.7678 60.5266 22.2219C60.337 22.6719 60.0683 23.0449 59.7183 23.3386L60.8516 33.6553ZM55.3183 21.4886C55.535 21.4886 55.685 21.4303 55.7683 21.3136C55.8558 21.1928 55.9016 20.9865 55.9016 20.6969V12.3303C55.9016 12.0594 55.8558 11.8699 55.7683 11.7636C55.685 11.6532 55.5287 11.5969 55.3016 11.5969H54.8266V21.4886H55.3183Z" fill="#FFF5F5"/>
<path d="M61.7335 33.6553V7.99695H67.2418C69.1918 7.99695 70.5835 8.25528 71.4168 8.77195C72.2543 9.28445 72.6751 10.1303 72.6751 11.3136V18.2219C72.6751 18.8386 72.5668 19.3803 72.3501 19.8469C72.1376 20.3094 71.7751 20.6469 71.2585 20.8636C71.7751 21.0636 72.1585 21.3949 72.4085 21.8553C72.6626 22.3115 72.7918 22.8428 72.7918 23.4469V30.3386C72.7918 31.5178 72.3751 32.3636 71.5418 32.8803C70.7126 33.3969 69.3251 33.6553 67.3751 33.6553H61.7335ZM66.6918 19.5219H67.0001C67.2605 19.5219 67.4522 19.4594 67.5751 19.3303C67.7022 19.1969 67.7668 18.9719 67.7668 18.6553V11.8219C67.7668 11.5615 67.721 11.3761 67.6335 11.2636C67.5501 11.1469 67.3939 11.0886 67.1668 11.0886H66.6918V19.5219ZM66.6918 30.5386H67.1668C67.3939 30.5386 67.5501 30.4865 67.6335 30.3803C67.721 30.2761 67.7668 30.0886 67.7668 29.8219V23.0136C67.7668 22.6969 67.7022 22.4761 67.5751 22.3469C67.4522 22.2136 67.2605 22.1469 67.0001 22.1469H66.6918V30.5386Z" fill="#FFF5F5"/>
<path d="M79.8785 33.6553L79.7702 30.0303H78.6368L78.5202 33.6553H73.3118L76.3535 7.99695H82.0285L85.0868 33.6553H79.8785ZM78.7285 27.1053H79.6702L79.2785 15.1469H79.0868L78.7285 27.1053Z" fill="#FFF5F5"/>
<path d="M85.6713 33.6553V7.99695H90.8797V29.9219H93.463V33.6553H85.6713Z" fill="#FFF5F5"/>
<path d="M94.2543 33.6553V7.99695H99.3293V19.1303H100.388V7.99695H105.479V33.6553H100.388V22.6386H99.3293V33.6553H94.2543Z" fill="#FFF5F5"/>
<path d="M106.367 28.5636V12.9553C106.367 11.2219 106.861 9.90319 107.851 8.99694C108.844 8.09278 110.317 7.63861 112.267 7.63861C114.217 7.63861 115.686 8.09486 116.676 9.00528C117.663 9.91778 118.159 11.2719 118.159 13.0719V28.5636C118.159 30.3594 117.663 31.7199 116.676 32.6469C115.686 33.5699 114.217 34.0303 112.267 34.0303C110.317 34.0303 108.863 33.5678 107.909 32.6386C106.953 31.7053 106.438 30.3469 106.367 28.5636ZM111.742 29.1803C111.742 29.5469 111.917 29.7303 112.267 29.7303C112.621 29.7303 112.801 29.5469 112.801 29.1803V12.4469C112.801 12.0803 112.621 11.8969 112.267 11.8969C111.917 11.8969 111.742 12.0803 111.742 12.4469V29.1803Z" fill="#FFF5F5"/>
<path d="M25.9304 62.6503V36.992H31.4388C33.3888 36.992 34.7804 37.2503 35.6138 37.767C36.4513 38.2795 36.8721 39.1253 36.8721 40.3086V47.217C36.8721 47.8336 36.7638 48.3753 36.5471 48.842C36.3346 49.3045 35.9721 49.642 35.4554 49.8586C35.9721 50.0586 36.3554 50.3899 36.6054 50.8503C36.8596 51.3066 36.9888 51.8378 36.9888 52.442V59.3336C36.9888 60.5128 36.5721 61.3586 35.7388 61.8753C34.9096 62.392 33.5221 62.6503 31.5721 62.6503H25.9304ZM30.8888 48.517H31.1971C31.4575 48.517 31.6492 48.4545 31.7721 48.3253C31.8992 48.192 31.9638 47.967 31.9638 47.6503V40.817C31.9638 40.5566 31.9179 40.3711 31.8304 40.2586C31.7471 40.142 31.5908 40.0836 31.3638 40.0836H30.8888V48.517ZM30.8888 59.5336H31.3638C31.5908 59.5336 31.7471 59.4816 31.8304 59.3753C31.9179 59.2711 31.9638 59.0836 31.9638 58.817V52.0086C31.9638 51.692 31.8992 51.4711 31.7721 51.342C31.6492 51.2086 31.4575 51.142 31.1971 51.142H30.8888V59.5336Z" fill="#FFF5F5"/>
<path d="M44.0755 62.6503L43.9671 59.0253H42.8338L42.7171 62.6503H37.5088L40.5505 36.992H46.2255L49.2838 62.6503H44.0755ZM42.9255 56.1003H43.8671L43.4755 44.142H43.2838L42.9255 56.1003Z" fill="#FFF5F5"/>
<path d="M60.8516 62.6503H55.9016L55.5266 53.3836H54.8266V62.6503H49.8683V36.992H55.1683C56.3016 36.992 57.2933 37.1045 58.1433 37.3253C58.9933 37.542 59.6475 37.9503 60.11 38.5503C60.5766 39.1461 60.81 40.0211 60.81 41.1753V49.5586C60.81 50.2086 60.7141 50.7628 60.5266 51.217C60.337 51.667 60.0683 52.0399 59.7183 52.3336L60.8516 62.6503ZM55.3183 50.4836C55.535 50.4836 55.685 50.4253 55.7683 50.3086C55.8558 50.1878 55.9016 49.9816 55.9016 49.692V41.3253C55.9016 41.0545 55.8558 40.8649 55.7683 40.7586C55.685 40.6482 55.5287 40.592 55.3016 40.592H54.8266V50.4836H55.3183Z" fill="#FFF5F5"/>
<path d="M61.7335 62.6503V36.992H67.2418C69.1918 36.992 70.5835 37.2503 71.4168 37.767C72.2543 38.2795 72.6751 39.1253 72.6751 40.3086V47.217C72.6751 47.8336 72.5668 48.3753 72.3501 48.842C72.1376 49.3045 71.7751 49.642 71.2585 49.8586C71.7751 50.0586 72.1585 50.3899 72.4085 50.8503C72.6626 51.3066 72.7918 51.8378 72.7918 52.442V59.3336C72.7918 60.5128 72.3751 61.3586 71.5418 61.8753C70.7126 62.392 69.3251 62.6503 67.3751 62.6503H61.7335ZM66.6918 48.517H67.0001C67.2605 48.517 67.4522 48.4545 67.5751 48.3253C67.7022 48.192 67.7668 47.967 67.7668 47.6503V40.817C67.7668 40.5566 67.721 40.3711 67.6335 40.2586C67.5501 40.142 67.3939 40.0836 67.1668 40.0836H66.6918V48.517ZM66.6918 59.5336H67.1668C67.3939 59.5336 67.5501 59.4816 67.6335 59.3753C67.721 59.2711 67.7668 59.0836 67.7668 58.817V52.0086C67.7668 51.692 67.7022 51.4711 67.5751 51.342C67.4522 51.2086 67.2605 51.142 67.0001 51.142H66.6918V59.5336Z" fill="#FFF5F5"/>
<path d="M73.7119 62.6503V36.992H82.2369V40.5336H78.9785V48.5753H81.5619V51.2503H78.9785V59.2003H82.2952V62.6503H73.7119Z" fill="#FFF5F5"/>
<path d="M93.9383 62.6503H88.9883L88.6133 53.3836H87.9133V62.6503H82.955V36.992H88.255C89.3883 36.992 90.38 37.1045 91.23 37.3253C92.08 37.542 92.7341 37.9503 93.1966 38.5503C93.6633 39.1461 93.8966 40.0211 93.8966 41.1753V49.5586C93.8966 50.2086 93.8008 50.7628 93.6133 51.217C93.4237 51.667 93.155 52.0399 92.805 52.3336L93.9383 62.6503ZM88.405 50.4836C88.6216 50.4836 88.7716 50.4253 88.855 50.3086C88.9425 50.1878 88.9883 49.9816 88.9883 49.692V41.3253C88.9883 41.0545 88.9425 40.8649 88.855 40.7586C88.7716 40.6482 88.6154 40.592 88.3883 40.592H87.9133V50.4836H88.405Z" fill="#FFF5F5"/>
<path d="M0.0791626 25.3854V22.7771H2.6875L0.0791626 25.3854Z" fill="#7F4A1F"/>
<path d="M0.0791626 40.5437V32.9646L10.2667 22.7771H17.8458L0.0791626 40.5437Z" fill="#E3873D"/>
<path d="M0.0791626 55.7042V48.125L17.9437 30.2604V37.8354L0.0791626 55.7042Z" fill="#7F4A1F"/>
<path d="M17.9437 45.4167V52.9958L7.75623 63.1833H0.177063L17.9437 45.4167Z" fill="#E3873D"/>
<path d="M17.9438 60.575V63.1833H15.3354L17.9438 60.575Z" fill="#7F4A1F"/>
<mask id="mask0_11_2" style="mask-type:luminance" maskUnits="userSpaceOnUse" x="-3" y="4" width="24" height="15">
<path d="M-2.25415 4.64166H20.1458V18.2H-2.25415V4.64166Z" fill="white"/>
</mask>
<g mask="url(#mask0_11_2)">
<path d="M18.6709 14.9292H17.9375C17.7979 10.6958 14.7146 7.21041 10.6688 6.45C10.6729 6.40208 10.6729 6.35416 10.6729 6.30625C10.6729 5.39166 9.92918 4.64583 9.0146 4.64583C8.09793 4.64583 7.35418 5.39166 7.35418 6.30625C7.35418 6.35416 7.35418 6.40208 7.36043 6.45C3.30835 7.21041 0.225017 10.6958 0.0854331 14.9292H-0.6479C-1.53748 14.9292 -2.25415 15.6479 -2.25415 16.5354C-2.25415 17.425 -1.53748 18.1417 -0.6479 18.1417H18.6709C19.5604 18.1417 20.2771 17.425 20.2771 16.5354C20.2771 15.6479 19.5604 14.9292 18.6709 14.9292Z" fill="#FFF5F5"/>
</g>
<mask id="mask1_11_2" style="mask-type:luminance" maskUnits="userSpaceOnUse" x="-3" y="67" width="24" height="15">
<path d="M-2.25415 67.8H20.1458V81.4417H-2.25415V67.8Z" fill="white"/>
</mask>
<g mask="url(#mask1_11_2)">
<path d="M18.6709 67.8125H-0.6479C-1.53748 67.8125 -2.25415 68.5313 -2.25415 69.4188C-2.25415 70.3083 -1.53748 71.025 -0.6479 71.025H0.0854331C0.225017 75.2604 3.31252 78.75 7.36043 79.5042C7.35418 79.5625 7.35002 79.6271 7.35002 79.6917C7.35002 80.6063 8.09377 81.3521 9.00835 81.3521C9.92502 81.3521 10.6688 80.6063 10.6688 79.6917C10.6688 79.6271 10.6625 79.5688 10.6584 79.5042C14.7104 78.75 17.7938 75.2604 17.9334 71.025H18.6667C19.5542 71.025 20.2709 70.3083 20.2709 69.4188C20.2771 68.5354 19.5604 67.8125 18.6709 67.8125Z" fill="#FFF5F5"/>
</g>
<path d="M29.8221 73.3217V77.9634H29.2471V75.93H26.6888V77.9634H26.1138V73.3217H26.6888V75.4467H29.2471V73.3217H29.8221Z" fill="#FFF5F5"/>
<path d="M33.4122 76.3217H31.7039L31.1622 77.9634H30.5372L32.2122 73.3217H32.9872L34.5872 77.9634H33.9622L33.4122 76.3217ZM31.8622 75.855H33.2539L32.5872 73.78L31.8622 75.855Z" fill="#FFF5F5"/>
<path d="M35.8906 77.9634H35.3156V73.3217H35.8906V77.9634Z" fill="#FFF5F5"/>
<path d="M40.1401 76.7467C40.1672 77.0467 40.2005 77.2946 40.2401 77.4884C40.2838 77.678 40.3526 77.8363 40.4484 77.9634H39.8151C39.7484 77.8134 39.6943 77.655 39.6568 77.4884C39.6234 77.3175 39.5922 77.0863 39.5651 76.7967C39.5359 76.5634 39.4693 76.3717 39.3651 76.2217C39.2651 76.0717 39.1005 75.9884 38.8734 75.9717C38.8172 75.9675 38.7609 75.9634 38.7068 75.9634C38.6505 75.9634 38.5943 75.9634 38.5401 75.9634H37.6651V77.9634H37.0901V73.3217H38.6068C38.7234 73.3217 38.8255 73.3259 38.9151 73.33C39.0088 73.33 39.1088 73.3363 39.2151 73.3467C39.5484 73.3925 39.8234 73.5134 40.0401 73.7134C40.2609 73.9092 40.3734 74.2009 40.3734 74.5884C40.3734 74.7884 40.3318 74.9634 40.2484 75.1134C40.1693 75.2592 40.0672 75.378 39.9401 75.4717C39.8172 75.5675 39.6838 75.6363 39.5401 75.68C39.7276 75.7696 39.8693 75.9113 39.9651 76.105C40.0651 76.3009 40.1234 76.5134 40.1401 76.7467ZM37.6651 75.4967H38.5568C38.6568 75.4967 38.7401 75.4967 38.8068 75.4967C38.8734 75.4925 38.9401 75.4863 39.0068 75.48C39.2172 75.4592 39.3922 75.378 39.5318 75.2384C39.6755 75.1009 39.7484 74.9009 39.7484 74.6384C39.7484 74.3842 39.6901 74.1925 39.5734 74.0634C39.4568 73.9363 39.2901 73.855 39.0734 73.8217C38.9609 73.805 38.8068 73.7967 38.6068 73.7967H37.6651V75.4967Z" fill="#FFF5F5"/>
<path d="M44.536 73.23C44.9297 73.23 45.261 73.3008 45.5276 73.4383C45.7985 73.5717 46.0068 73.7592 46.1526 73.9967C46.3026 74.23 46.3943 74.5008 46.4276 74.805L46.436 74.8717H45.8526L45.8443 74.805C45.7714 74.4717 45.6297 74.2029 45.4193 73.9967C45.2068 73.7925 44.9068 73.6883 44.5193 73.6883C44.2068 73.6883 43.936 73.7717 43.7026 73.9383C43.4735 74.105 43.2964 74.3363 43.1693 74.63C43.0464 74.9258 42.986 75.2613 42.986 75.6383C42.986 76.0175 43.0464 76.355 43.1693 76.655C43.2901 76.9508 43.463 77.18 43.686 77.3467C43.913 77.5133 44.1797 77.5967 44.486 77.5967C44.8693 77.5967 45.1651 77.4946 45.3776 77.2883C45.5943 77.0842 45.736 76.8133 45.8026 76.48L45.811 76.4133H46.3943L46.386 76.48C46.3568 76.7592 46.2651 77.0196 46.111 77.2633C45.961 77.5029 45.7464 77.6946 45.4693 77.8383C45.1964 77.9821 44.8568 78.055 44.4526 78.055C44.0026 78.055 43.6193 77.9508 43.3026 77.7383C42.9901 77.5279 42.7526 77.2446 42.586 76.8883C42.4235 76.5279 42.3443 76.1196 42.3443 75.6633C42.3443 75.1925 42.4318 74.7717 42.611 74.405C42.7943 74.0383 43.0485 73.7529 43.3776 73.5467C43.711 73.3363 44.0964 73.23 44.536 73.23Z" fill="#FFF5F5"/>
<path d="M50.8427 73.3217V76.2467C50.8427 76.3196 50.8427 76.3925 50.8427 76.4634C50.8427 76.53 50.8365 76.5967 50.826 76.6634C50.8031 76.9196 50.7281 77.153 50.601 77.3634C50.4719 77.5759 50.2844 77.7446 50.0344 77.8717C49.7885 77.9925 49.4781 78.055 49.101 78.055C48.7219 78.055 48.4094 77.9925 48.1594 77.8717C47.9135 77.7446 47.7281 77.5759 47.601 77.3634C47.4719 77.153 47.3948 76.9196 47.3677 76.6634C47.3677 76.5967 47.3635 76.53 47.3594 76.4634C47.3594 76.3925 47.3594 76.3196 47.3594 76.2467V73.3217H47.9344V76.1967C47.9344 76.2696 47.9344 76.3425 47.9344 76.4134C47.9385 76.48 47.9448 76.5446 47.951 76.605C47.9781 76.8946 48.0865 77.1342 48.276 77.3217C48.4698 77.505 48.7448 77.5967 49.101 77.5967C49.4552 77.5967 49.7281 77.505 49.9177 77.3217C50.1115 77.1342 50.2219 76.8946 50.251 76.605C50.2552 76.5446 50.2594 76.48 50.2594 76.4134C50.2594 76.3425 50.2594 76.2696 50.2594 76.1967V73.3217H50.8427Z" fill="#FFF5F5"/>
<path d="M55.4268 73.7967H53.7685V77.9634H53.1935V73.7967H51.5352V73.3217H55.4268V73.7967Z" fill="#FFF5F5"/>
<path d="M61.059 75.3717V75.8467H60.409V77.9133C60.2194 77.9592 60.0173 77.9904 59.8006 78.0133C59.584 78.0404 59.3631 78.055 59.1423 78.055C58.7798 78.055 58.461 78.0175 58.184 77.9467C57.9048 77.8758 57.6881 77.7467 57.534 77.5633C57.384 77.38 57.309 77.1258 57.309 76.7967C57.309 76.5196 57.4027 76.2696 57.5923 76.0467C57.7798 75.8196 58.0381 75.6696 58.3673 75.5967C58.111 75.5363 57.9006 75.4175 57.734 75.2383C57.5715 75.0613 57.4923 74.8363 57.4923 74.5633C57.4923 74.2967 57.561 74.0633 57.7006 73.8633C57.8381 73.6633 58.034 73.5092 58.284 73.3967C58.534 73.2863 58.8173 73.23 59.134 73.23C59.3006 73.23 59.4444 73.2363 59.5673 73.2467C59.6881 73.2592 59.8131 73.2758 59.9423 73.2967V73.7633C59.8027 73.7363 59.6715 73.7175 59.5506 73.705C59.4277 73.6946 59.284 73.6883 59.1173 73.6883C58.811 73.6883 58.5715 73.7633 58.4006 73.9133C58.2277 74.0633 58.1423 74.2696 58.1423 74.53C58.1423 74.7425 58.1777 74.905 58.2506 75.0217C58.3277 75.1383 58.434 75.2258 58.5673 75.28C58.7006 75.33 58.8506 75.3592 59.0173 75.3633C59.0777 75.3696 59.1444 75.3717 59.2173 75.3717C59.2881 75.3717 59.361 75.3717 59.434 75.3717H59.834V74.6217H60.409V75.3717H61.059ZM57.9506 76.7133C57.9506 77.0363 58.0444 77.2633 58.234 77.3967C58.4277 77.53 58.736 77.5967 59.159 77.5967C59.2923 77.5967 59.409 77.5946 59.509 77.5883C59.6131 77.5779 59.7215 77.5613 59.834 77.5383V75.8467H59.434C59.361 75.8467 59.2923 75.8467 59.2256 75.8467C59.159 75.8467 59.0881 75.8508 59.0173 75.855C58.634 75.8883 58.359 75.9863 58.1923 76.1467C58.0298 76.3092 57.9506 76.4967 57.9506 76.7133Z" fill="#FFF5F5"/>
<path d="M64.8317 73.23C65.1588 73.23 65.4317 73.2925 65.6484 73.4133C65.8692 73.53 66.0421 73.6946 66.165 73.905C66.2859 74.1113 66.3609 74.3446 66.39 74.605H65.7734C65.7442 74.3175 65.6442 74.0925 65.4734 73.93C65.3067 73.7696 65.0775 73.6883 64.79 73.6883C64.54 73.6883 64.3275 73.7467 64.1567 73.8633C63.99 73.98 63.9067 74.1592 63.9067 74.3967C63.9067 74.6467 63.9838 74.8363 64.14 74.9633C64.2942 75.0925 64.5484 75.1967 64.8984 75.28C65.4088 75.3967 65.7921 75.5696 66.0484 75.7967C66.3025 76.0196 66.4317 76.3279 66.4317 76.7217C66.4317 76.9946 66.3609 77.23 66.2234 77.43C66.0838 77.63 65.8921 77.7863 65.6484 77.8967C65.4088 78.0008 65.14 78.055 64.84 78.055C64.3275 78.055 63.9171 77.9342 63.6067 77.6883C63.3004 77.4446 63.1234 77.0967 63.0734 76.6467H63.69C63.7567 76.9529 63.8921 77.1883 64.0984 77.355C64.3025 77.5175 64.5567 77.5967 64.8567 77.5967C65.1171 77.5967 65.3421 77.53 65.5317 77.3967C65.7192 77.2592 65.815 77.0696 65.815 76.83C65.815 76.5467 65.7254 76.3342 65.5484 76.1883C65.3754 76.0383 65.0859 75.9175 64.6817 75.8217C64.4088 75.755 64.1671 75.6717 63.9567 75.5717C63.7504 75.4675 63.5859 75.33 63.465 75.1633C63.3484 74.9967 63.29 74.7863 63.29 74.53C63.29 74.2633 63.3588 74.0342 63.4984 73.8383C63.6359 73.6446 63.8234 73.4946 64.0567 73.3883C64.2942 73.2842 64.5525 73.23 64.8317 73.23Z" fill="#FFF5F5"/>
<path d="M71.0388 73.3217V77.9634H70.4638V75.93H67.9055V77.9634H67.3305V73.3217H67.9055V75.4467H70.4638V73.3217H71.0388Z" fill="#FFF5F5"/>
<path d="M74.6289 76.3217H72.9206L72.3789 77.9634H71.7539L73.4289 73.3217H74.2039L75.8039 77.9634H75.1789L74.6289 76.3217ZM73.0789 75.855H74.4706L73.8039 73.78L73.0789 75.855Z" fill="#FFF5F5"/>
<path d="M78.4574 77.9634H77.674L76.074 73.3217H76.699L78.074 77.53L79.499 73.3217H80.124L78.4574 77.9634Z" fill="#FFF5F5"/>
<path d="M83.7965 77.4967V77.9634H80.7132V73.3217H83.7299V73.7967H81.2882V75.405H83.5299V75.88H81.2882V77.4967H83.7965Z" fill="#FFF5F5"/>
<path d="M86.0921 73.23C86.4192 73.23 86.6921 73.2925 86.9087 73.4133C87.1296 73.53 87.3025 73.6946 87.4254 73.905C87.5462 74.1113 87.6212 74.3446 87.6504 74.605H87.0337C87.0046 74.3175 86.9046 74.0925 86.7337 73.93C86.5671 73.7696 86.3379 73.6883 86.0504 73.6883C85.8004 73.6883 85.5879 73.7467 85.4171 73.8633C85.2504 73.98 85.1671 74.1592 85.1671 74.3967C85.1671 74.6467 85.2442 74.8363 85.4004 74.9633C85.5546 75.0925 85.8087 75.1967 86.1587 75.28C86.6692 75.3967 87.0525 75.5696 87.3087 75.7967C87.5629 76.0196 87.6921 76.3279 87.6921 76.7217C87.6921 76.9946 87.6212 77.23 87.4837 77.43C87.3442 77.63 87.1525 77.7863 86.9087 77.8967C86.6692 78.0008 86.4004 78.055 86.1004 78.055C85.5879 78.055 85.1775 77.9342 84.8671 77.6883C84.5608 77.4446 84.3837 77.0967 84.3337 76.6467H84.9504C85.0171 76.9529 85.1525 77.1883 85.3587 77.355C85.5629 77.5175 85.8171 77.5967 86.1171 77.5967C86.3775 77.5967 86.6025 77.53 86.7921 77.3967C86.9796 77.2592 87.0754 77.0696 87.0754 76.83C87.0754 76.5467 86.9858 76.3342 86.8087 76.1883C86.6358 76.0383 86.3462 75.9175 85.9421 75.8217C85.6692 75.755 85.4275 75.6717 85.2171 75.5717C85.0108 75.4675 84.8462 75.33 84.7254 75.1633C84.6087 74.9967 84.5504 74.7863 84.5504 74.53C84.5504 74.2633 84.6192 74.0342 84.7587 73.8383C84.8962 73.6446 85.0837 73.4946 85.3171 73.3883C85.5546 73.2842 85.8129 73.23 86.0921 73.23Z" fill="#FFF5F5"/>
</g>
<defs>
<clipPath id="clip0_11_2">
<rect width="118" height="87" fill="white"/>
</clipPath>
</defs>
</svg>
